<svg width="14" height="14" viewBox="0 0 14 14" fill="none" xmlns="http://www.w3.org/2000/svg">
<path fill-rule="evenodd" clip-rule="evenodd" d="M7 1.19656C5.86336 1.19656 4.77327 1.63689 3.96954 2.42067C3.16588 3.2044 2.71436 4.26733 2.71429 5.37568C2.71576 6.27985 3.01639 7.15941 3.57148 7.88363C3.57157 7.88375 3.57139 7.88352 3.57148 7.88363L7 12.3394L10.4282 7.88399C10.4283 7.88389 10.4282 7.88409 10.4282 7.88399C10.9833 7.1598 11.2842 6.27997 11.2857 5.37583C11.2857 4.26743 10.8342 3.20443 10.0305 2.42067C9.22673 1.63689 8.13664 1.19656 7 1.19656ZM12 5.37594C12 4.08276 11.4732 2.84254 10.5355 1.92813C9.59785 1.01371 8.32608 0.5 7 0.5C5.67392 0.5 4.40215 1.01371 3.46447 1.92813C2.52678 2.84254 2 4.08276 2 5.37594C2.00166 6.43034 2.35226 7.45659 2.99967 8.30107L7 13.5L11 8.30156C11.6474 7.45708 11.9983 6.43034 12 5.37594Z" fill="black"/>
<path fill-rule="evenodd" clip-rule="evenodd" d="M7 4.3C6.33726 4.3 5.8 4.83726 5.8 5.5C5.8 6.16274 6.33726 6.7 7 6.7C7.66274 6.7 8.2 6.16274 8.2 5.5C8.2 4.83726 7.66274 4.3 7 4.3ZM5 5.5C5 4.39543 5.89543 3.5 7 3.5C8.10457 3.5 9 4.39543 9 5.5C9 6.60457 8.10457 7.5 7 7.5C5.89543 7.5 5 6.60457 5 5.5Z" fill="black"/>
</svg>
