<svg width="30" height="30" viewBox="0 0 30 30" fill="none" xmlns="http://www.w3.org/2000/svg">
<circle cx="15" cy="15" r="14.5" stroke="black"/>
<path d="M17.2955 11.1298C17.1215 10.9567 16.8395 10.9567 16.6656 11.1298C16.4916 11.3029 16.4916 11.5836 16.6656 11.7567L19.4953 14.5727H9.42935C9.19222 14.5727 9 14.764 9 15C9 15.236 9.19224 15.4273 9.42935 15.4273H19.4953L16.6656 18.2433C16.4916 18.4164 16.4916 18.6971 16.6656 18.8702C16.7525 18.9567 16.8665 19 16.9805 19C17.0945 19 17.2085 18.9567 17.2955 18.8702L20.8695 15.3134C20.9531 15.2303 21 15.1176 21 15C21 14.8824 20.9531 14.7697 20.8695 14.6866L17.2955 11.1298Z" fill="black"/>
</svg>
