<svg width="60" height="60" viewBox="0 0 60 60" fill="none" xmlns="http://www.w3.org/2000/svg">
<g clip-path="url(#clip0_1569_21429)">
<rect y="-0.000488281" width="60" height="60" rx="30" fill="#999999"/>
<path d="M29.9999 29.6663C35.891 29.6663 40.6666 24.8907 40.6666 18.9997C40.6666 13.1086 35.891 8.33301 29.9999 8.33301C24.1089 8.33301 19.3333 13.1086 19.3333 18.9997C19.3333 24.8907 24.1089 29.6663 29.9999 29.6663Z" fill="#F7F7F7"/>
<path d="M30 84.9995C44.3594 84.9995 56 73.3589 56 58.9995C56 44.6401 44.3594 32.9995 30 32.9995C15.6406 32.9995 4 44.6401 4 58.9995C4 73.3589 15.6406 84.9995 30 84.9995Z" fill="#F7F7F7"/>
</g>
<defs>
<clipPath id="clip0_1569_21429">
<rect y="-0.000488281" width="60" height="60" rx="30" fill="white"/>
</clipPath>
</defs>
</svg>
