<svg width="50" height="50" viewBox="0 0 50 50" fill="none" xmlns="http://www.w3.org/2000/svg">
<path d="M28 24.5V19C28 18.2044 27.6839 17.4413 27.1213 16.8787C26.5587 16.3161 25.7956 16 25 16C24.2044 16 23.4413 16.3161 22.8787 16.8787C22.3161 17.4413 22 18.2044 22 19V24.5" stroke="black"/>
<path d="M16.5 21H33.5V30C33.5 30.9283 33.1313 31.8185 32.4749 32.4749C31.8185 33.1313 30.9283 33.5 30 33.5H20C19.0717 33.5 18.1815 33.1313 17.5251 32.4749C16.8687 31.8185 16.5 30.9283 16.5 30V21Z" stroke="black"/>
<rect x="0.4" y="0.4" width="49.2" height="49.2" rx="24.6" stroke="black" stroke-width="0.8"/>
</svg>
