<svg width="28" height="28" viewBox="0 0 28 28" fill="none" xmlns="http://www.w3.org/2000/svg">
<path d="M11.1126 4.40435C11.8784 3.63858 12.917 3.20837 14 3.20837C15.083 3.20837 16.1216 3.63858 16.8874 4.40435C17.6531 5.17013 18.0833 6.20874 18.0833 7.29171V9.04171H24.5V20.125C24.5 21.3627 24.0083 22.5497 23.1332 23.4249C22.258 24.3 21.071 24.7917 19.8333 24.7917H8.16667C6.92899 24.7917 5.74201 24.3 4.86684 23.4249C3.99167 22.5497 3.5 21.3627 3.5 20.125V9.04171H9.91667V7.29171C9.91667 6.20874 10.3469 5.17013 11.1126 4.40435ZM9.91667 10.2084H4.66667V20.125C4.66667 21.0533 5.03542 21.9435 5.69179 22.5999C6.34817 23.2563 7.23841 23.625 8.16667 23.625H19.8333C20.7616 23.625 21.6518 23.2563 22.3082 22.5999C22.9646 21.9435 23.3333 21.0533 23.3333 20.125V10.2084H18.0833V13.7084H16.9167V10.2084H11.0833V13.7084H9.91667V10.2084ZM16.9167 9.04171V7.29171C16.9167 6.51816 16.6094 5.77629 16.0624 5.22931C15.5154 4.68233 14.7735 4.37504 14 4.37504C13.2265 4.37504 12.4846 4.68233 11.9376 5.22931C11.3906 5.77629 11.0833 6.51816 11.0833 7.29171V9.04171H16.9167Z" fill="black"/>
</svg>
