<svg width="20" height="20" viewBox="0 0 20 20" fill="none" xmlns="http://www.w3.org/2000/svg">
<path d="M10.5653 9.98649L13.8819 6.6845C13.9548 6.61202 14 6.51161 14 6.40063C14 6.29045 13.9555 6.19067 13.8835 6.11836C13.8111 6.04527 13.7108 6 13.5999 6C13.4897 6 13.39 6.04462 13.3178 6.11676L10.0004 9.41915L6.71187 6.11791C6.55625 5.96174 6.30299 5.96097 6.14617 6.11709C5.98972 6.27325 5.98935 6.52671 6.14535 6.68363L9.43311 9.98403L6.11811 13.284C6.04514 13.3565 6 13.4569 6 13.5679C6 13.6781 6.04452 13.7779 6.11652 13.8502C6.18888 13.9231 6.28914 13.9683 6.39995 13.9683C6.40003 13.9683 6.4001 13.9683 6.4002 13.9683C6.5022 13.9683 6.60421 13.9295 6.68225 13.8518L9.99806 10.551L13.3166 13.8823C13.3888 13.955 13.4887 14 13.5991 14C13.5994 14 13.5997 14 13.5999 14C13.6 14 13.6 14 13.6001 14C13.7103 14 13.8101 13.9553 13.8823 13.8831C14.0388 13.7269 14.0392 13.4739 13.8832 13.3169L10.5653 9.98647L10.5653 9.98649Z" fill="#696969"/>
<circle cx="10" cy="10" r="9.5" stroke="#696969"/>
</svg>
