<svg width="16" height="16" viewBox="0 0 16 16" fill="none" xmlns="http://www.w3.org/2000/svg">
<path d="M2.61328 4.6001H3.77476H13.0666" stroke="#B2B2B2" stroke-linecap="square" stroke-linejoin="round"/>
<path d="M5.51712 4.59998V3.46665C5.51712 3.16607 5.6395 2.8778 5.85732 2.66526C6.07514 2.45272 6.37056 2.33331 6.67861 2.33331H9.00157C9.30961 2.33331 9.60504 2.45272 9.82286 2.66526C10.0407 2.8778 10.1631 3.16607 10.1631 3.46665V4.59998M11.9053 4.59998V12.5333C11.9053 12.8339 11.7829 13.1222 11.5651 13.3347C11.3473 13.5472 11.0518 13.6666 10.7438 13.6666H4.93638C4.62834 13.6666 4.33291 13.5472 4.11509 13.3347C3.89727 13.1222 3.7749 12.8339 3.7749 12.5333V4.59998H11.9053Z" stroke="#B2B2B2" stroke-linecap="round" stroke-linejoin="round"/>
<path d="M6.67847 7.33331V10.6666" stroke="#B2B2B2" stroke-linecap="square" stroke-linejoin="round"/>
<path d="M9.00146 7.33331V10.6666" stroke="#B2B2B2" stroke-linecap="square" stroke-linejoin="round"/>
</svg>
