<svg width="19" height="7" viewBox="0 0 19 7" fill="none" xmlns="http://www.w3.org/2000/svg">
<path fill-rule="evenodd" clip-rule="evenodd" d="M9.75 6.5C11.5449 6.5 13 5.04493 13 3.25C13 1.45507 11.5449 0 9.75 0C7.95507 0 6.5 1.45507 6.5 3.25C6.5 5.04493 7.95507 6.5 9.75 6.5ZM4.5 3.5C4.5 4.6044 3.6044 5.5 2.5 5.5C1.3956 5.5 0.5 4.6044 0.5 3.5C0.5 2.3952 1.3956 1.5 2.5 1.5C3.6044 1.5 4.5 2.3952 4.5 3.5ZM19 3.5C19 4.6044 18.1044 5.5 17 5.5C15.8956 5.5 15 4.6044 15 3.5C15 2.3952 15.8956 1.5 17 1.5C18.1044 1.5 19 2.3952 19 3.5Z" fill="white"/>
</svg>
