<svg width="24" height="24" viewBox="0 0 24 24" fill="none" xmlns="http://www.w3.org/2000/svg">
<path fill-rule="evenodd" clip-rule="evenodd" d="M4.22437 11.7609C4.28513 11.8411 4.35286 11.9287 4.42738 12.0224C4.82242 12.5194 5.40211 13.1821 6.13801 13.844C7.62742 15.1836 9.6518 16.4275 12.0139 16.4494C14.3629 16.4712 16.3767 15.2357 17.8628 13.8852C18.5967 13.2182 19.1748 12.5472 19.569 12.043C19.6469 11.9433 19.7174 11.8504 19.7803 11.7658C19.7154 11.6789 19.6425 11.5835 19.5618 11.4808C19.162 10.9722 18.577 10.2949 17.8377 9.62035C16.3386 8.25244 14.3222 7 12.0046 7C9.68675 7 7.668 8.25264 6.16637 9.62084C5.42589 10.2955 4.83967 10.9729 4.43903 11.4815C4.35991 11.582 4.28828 11.6755 4.22437 11.7609ZM21 11.7633C21 11.7633 20.8846 11.9485 20.6638 12.2521C19.6744 13.6126 16.5687 17.35 12.2482 17.4478C12.1792 17.4493 12.1099 17.45 12.0403 17.4496C12.0284 17.4496 12.0165 17.4495 12.0046 17.4494C12.0019 17.4494 11.9992 17.4493 11.9964 17.4493C7.59783 17.4039 4.41066 13.683 3.36787 12.2857C3.12648 11.9623 3 11.7633 3 11.7633C3 11.7633 3.13738 11.5462 3.39801 11.1961C4.48003 9.74302 7.68626 6 12.0046 6C16.4154 6 19.6597 9.90498 20.6693 11.2863C20.6755 11.2948 20.6817 11.3032 20.6877 11.3115C20.8927 11.5932 21 11.7633 21 11.7633Z" fill="black"/>
<path fill-rule="evenodd" clip-rule="evenodd" d="M12 13.75C13.1046 13.75 14 12.8546 14 11.75C14 10.6454 13.1046 9.75 12 9.75C10.8954 9.75 10 10.6454 10 11.75C10 12.8546 10.8954 13.75 12 13.75ZM15 11.75C15 13.4069 13.6569 14.75 12 14.75C10.3431 14.75 9 13.4069 9 11.75C9 10.0931 10.3431 8.75 12 8.75C13.6569 8.75 15 10.0931 15 11.75Z" fill="black"/>
</svg>
