<svg width="24" height="24" viewBox="0 0 24 24" fill="none" xmlns="http://www.w3.org/2000/svg">
<path fill-rule="evenodd" clip-rule="evenodd" d="M4.99992 18L7.13047 15.8695C5.28279 14.6689 3.96901 13.0911 3.36787 12.2857C3.12648 11.9622 3 11.7633 3 11.7633C3 11.7633 3.13738 11.5461 3.39801 11.1961C4.48003 9.74297 7.68626 5.99995 12.0046 5.99995C13.4611 5.99995 14.7904 6.42575 15.954 7.04588L17.9999 5L18.707 5.70711L5.70703 18.7071L4.99992 18ZM6.13801 13.8439C6.64976 14.3042 7.22467 14.7532 7.85473 15.1452L9.53689 13.463C9.19845 12.9773 9 12.3868 9 11.75C9 10.0931 10.3431 8.74995 12 8.74995C12.6369 8.74995 13.2274 8.9484 13.7131 9.28684L15.2111 7.78881C14.2344 7.30946 13.1567 6.99995 12.0046 6.99995C9.68675 6.99995 7.668 8.2526 6.16637 9.6208C5.42589 10.2955 4.83967 10.9728 4.43903 11.4815C4.35991 11.5819 4.28828 11.6755 4.22437 11.7608C4.28513 11.841 4.35286 11.9286 4.42738 12.0224C4.82242 12.5193 5.40211 13.182 6.13801 13.8439ZM12.9888 10.0111C12.6972 9.8449 12.3597 9.74995 12 9.74995C10.8954 9.74995 10 10.6454 10 11.75C10 12.1096 10.0949 12.4471 10.2611 12.7388L12.9888 10.0111Z" fill="black"/>
<path d="M17.6555 8.15852L16.9426 8.87148C17.2581 9.11206 17.557 9.36416 17.8377 9.62031C18.577 10.2949 19.162 10.9721 19.5618 11.4807C19.6425 11.5834 19.7154 11.6789 19.7803 11.7657C19.7174 11.8504 19.6469 11.9432 19.569 12.0429C19.1748 12.5472 18.5967 13.2182 17.8628 13.8851C16.3767 15.2356 14.3629 16.4712 12.0139 16.4494C11.2211 16.442 10.4664 16.297 9.75711 16.0569L8.97849 16.8355C9.90155 17.2035 10.9122 17.4381 11.9964 17.4493L12.0046 17.4493L12.0403 17.4496C12.1099 17.4499 12.1792 17.4493 12.2482 17.4477C16.5687 17.35 19.6744 13.6125 20.6638 12.2521C20.8846 11.9485 21 11.7633 21 11.7633C21 11.7633 20.8927 11.5932 20.6877 11.3115L20.6693 11.2862C20.1694 10.6023 19.1216 9.29954 17.6555 8.15852Z" fill="black"/>
<path d="M12 14.75C11.715 14.75 11.4393 14.7102 11.1781 14.636L12.0651 13.7489C13.1179 13.7152 13.9653 12.8679 13.999 11.8151L14.886 10.928C14.9603 11.1892 15 11.4649 15 11.75C15 13.4068 13.6569 14.75 12 14.75Z" fill="black"/>
</svg>
