<svg width="14" height="14" viewBox="0 0 14 14" fill="none" xmlns="http://www.w3.org/2000/svg">
<path d="M10.5 4.375H12.25" stroke="black"/>
<path d="M1.75 4.375H8.16667" stroke="black"/>
<path d="M5.83337 9.625H12.25" stroke="black"/>
<path d="M1.75 9.625H3.5" stroke="black"/>
<path d="M4.66667 10.7916C5.311 10.7916 5.83333 10.2693 5.83333 9.62498C5.83333 8.98065 5.311 8.45831 4.66667 8.45831C4.02233 8.45831 3.5 8.98065 3.5 9.62498C3.5 10.2693 4.02233 10.7916 4.66667 10.7916Z" stroke="black"/>
<path d="M9.33329 5.54165C9.97762 5.54165 10.5 5.01931 10.5 4.37498C10.5 3.73065 9.97762 3.20831 9.33329 3.20831C8.68896 3.20831 8.16663 3.73065 8.16663 4.37498C8.16663 5.01931 8.68896 5.54165 9.33329 5.54165Z" stroke="black"/>
</svg>
