<svg width="26" height="26" viewBox="0 0 26 26" fill="none" xmlns="http://www.w3.org/2000/svg">
  <path d="M0 13C0 5.8203 5.8203 0 13 0C20.1797 0 26 5.8203 26 13C26 20.1797 20.1797 26 13 26C5.8203 26 0 20.1797 0 13Z" fill="#fff"/>
  <path fill-rule="evenodd" clip-rule="evenodd" d="M12.134 10.1327C11.1347 9.12801 9.51771 9.12801 8.5184 10.1327C7.51495 11.1416 7.51495 12.7803 8.5184 13.7892L9.16404 14.4383L13.0001 18.3086L16.8356 14.4387L17.4816 13.7892C18.4851 12.7803 18.4851 11.1416 17.4816 10.1327C16.4823 9.12801 14.8654 9.12801 13.866 10.1327L13 11.0034L12.134 10.1327ZM8.07764 9.71089C9.3186 8.46323 11.3338 8.46323 12.5748 9.71089L13 10.1385L13.4253 9.71089C14.6662 8.46323 16.6815 8.46323 17.9224 9.71089C19.1592 10.9544 19.1592 12.9675 17.9224 14.211L17.2771 14.8597L13.0001 19.1751L8.72328 14.8601L8.07764 14.211C6.84082 12.9675 6.84082 10.9544 8.07764 9.71089Z" fill="black"/>
  </svg>
