<svg width="26" height="26" viewBox="0 0 26 26" fill="none" xmlns="http://www.w3.org/2000/svg">
<circle cx="13" cy="13" r="13" fill="white"/>
<path d="M13.0355 18.817C12.8146 18.817 12.5938 18.7332 12.4262 18.5656L7.9041 14.041C7.16016 13.2996 6.75391 12.3119 6.75391 11.2556C6.75391 10.1994 7.16269 9.2117 7.9041 8.4703C9.28535 7.08905 11.4715 6.93671 13.0355 8.09452C14.6021 6.92909 16.7756 7.07889 18.167 8.4703C19.7031 10.0064 19.7031 12.5074 18.167 14.0435L13.6449 18.5631C13.4773 18.7306 13.2564 18.817 13.0355 18.817ZM10.6895 8.16307C9.89473 8.16307 9.1 8.46776 8.50078 9.06698C7.91934 9.64842 7.59941 10.4254 7.59941 11.2556C7.59941 12.0859 7.91934 12.8629 8.50078 13.4443L13.0229 17.9664L17.5678 13.4443C18.7738 12.2383 18.7738 10.273 17.5678 9.06698C16.5293 8.0285 14.8687 7.88378 13.6627 8.68612C13.7541 8.77499 13.8607 8.87909 13.9852 9.0035C14.201 9.21678 14.3838 9.39706 14.4168 9.42752C14.5869 9.58495 14.5996 9.85155 14.4422 10.0242C14.2873 10.1943 14.0207 10.2096 13.8506 10.0547C13.8277 10.0344 13.6297 9.83885 13.3936 9.6078C13.1143 9.33104 12.6445 8.86893 12.5836 8.81561C12.0275 8.37635 11.3572 8.16307 10.6895 8.16307Z" fill="#010101"/>
<path d="M14.3025 14.6479C14.1959 14.6479 14.0892 14.6072 14.0055 14.526C13.8379 14.3635 13.8353 14.0944 14.0004 13.9293L15.4299 12.4719C15.5949 12.3043 15.8615 12.3018 16.0266 12.4668C16.1941 12.6293 16.1967 12.8985 16.0316 13.0635L14.6021 14.5209C14.5209 14.6047 14.4117 14.6479 14.3025 14.6479Z" fill="black"/>
<path d="M13.0355 18.817C12.8146 18.817 12.5938 18.7332 12.4262 18.5656L7.9041 14.041C7.16016 13.2996 6.75391 12.3119 6.75391 11.2556C6.75391 10.1994 7.16269 9.2117 7.9041 8.4703C9.28535 7.08905 11.4715 6.93671 13.0355 8.09452C14.6021 6.92909 16.7756 7.07889 18.167 8.4703C19.7031 10.0064 19.7031 12.5074 18.167 14.0435L13.6449 18.5631C13.4773 18.7306 13.2564 18.817 13.0355 18.817Z" fill="#010101"/>
</svg>
