<svg width="24" height="24" viewBox="0 0 24 24" fill="none" xmlns="http://www.w3.org/2000/svg">
<path fill-rule="evenodd" clip-rule="evenodd" d="M10.6677 6.58858C9.13026 5.04287 6.64259 5.04287 5.10519 6.58857C3.56143 8.14068 3.56143 10.6618 5.10519 12.2139L6.09849 13.2125L12.0002 19.1669L17.9009 13.2131L18.8948 12.2139C20.4386 10.6618 20.4386 8.14068 18.8948 6.58857C17.3574 5.04287 14.8697 5.04287 13.3323 6.58858L12 7.92812L10.6677 6.58858ZM4.4271 5.93961C6.33627 4.02013 9.43658 4.02013 11.3457 5.93961L12 6.59739L12.6543 5.93961C14.5634 4.02013 17.6637 4.02013 19.5729 5.93961C21.4757 7.85268 21.4757 10.9498 19.5729 12.8628L18.5802 13.8609L12.0002 20.5L5.4204 13.8615L4.4271 12.8628C2.5243 10.9498 2.5243 7.85268 4.4271 5.93961Z" fill="black"/>
</svg>
