<svg width="24" height="25" viewBox="0 0 24 25" fill="none" xmlns="http://www.w3.org/2000/svg">
<path d="M12 3.75L21 9.22522V17.9776C21 18.9871 20.5732 19.9494 19.8233 20.6545C19.0742 21.3587 18.0638 21.75 17.0155 21.75H6.98452C5.93622 21.75 4.92579 21.3587 4.17674 20.6545C3.42678 19.9494 3 18.9871 3 17.9776V9.22522L12 3.75ZM3.94737 9.75415V17.9776C3.94737 18.719 4.26037 19.4359 4.82723 19.9688C5.395 20.5026 6.17056 20.8069 6.98452 20.8069H17.0155C17.8294 20.8069 18.605 20.5026 19.1728 19.9688C19.7396 19.4359 20.0526 18.719 20.0526 17.9776V9.75415L12 4.85526L3.94737 9.75415Z" fill="#FFFFFF"/>
</svg>
