<svg width="24" height="24" viewBox="0 0 24 24" fill="none" xmlns="http://www.w3.org/2000/svg">
    <path d="M4 6.90015H5.77778H20" stroke="#CCCCCC" stroke-linecap="square" stroke-linejoin="round"/>
    <path d="M8.4445 6.9V5.2C8.4445 4.74913 8.6318 4.31673 8.9652 3.99792C9.2986 3.67911 9.75078 3.5 10.2223 3.5H13.7778C14.2493 3.5 14.7015 3.67911 15.0349 3.99792C15.3683 4.31673 15.5556 4.74913 15.5556 5.2V6.9M18.2223 6.9V18.8C18.2223 19.2509 18.035 19.6833 17.7016 20.0021C17.3682 20.3209 16.916 20.5 16.4445 20.5H7.55561C7.08411 20.5 6.63193 20.3209 6.29853 20.0021C5.96513 19.6833 5.77783 19.2509 5.77783 18.8V6.9H18.2223Z" stroke="#CCCCCC" stroke-linecap="round" stroke-linejoin="round"/>
    <path d="M10.2222 11V16" stroke="#CCCCCC" stroke-linecap="square" stroke-linejoin="round"/>
    <path d="M13.7778 11V16" stroke="#CCCCCC" stroke-linecap="square" stroke-linejoin="round"/>
    </svg>
    