<svg width="16" height="16" viewBox="0 0 16 16" fill="none" xmlns="http://www.w3.org/2000/svg">
    <path d="M7.66675 8.00008V2.66675H8.33341V7.7084L10.9585 10.3334L10.4871 10.8048L7.68229 8.00008H7.66675Z" fill="#767676"/>
    <path d="M15.3334 8.00008C15.3334 12.0502 12.0502 15.3334 8.00008 15.3334C3.94999 15.3334 0.666748 12.0502 0.666748 8.00008C0.666748 3.94999 3.94999 0.666748 8.00008 0.666748C12.0502 0.666748 15.3334 3.94999 15.3334 8.00008ZM14.6667 8.00008C14.6667 4.31818 11.682 1.33341 8.00008 1.33341C4.31818 1.33341 1.33341 4.31818 1.33341 8.00008C1.33341 11.682 4.31818 14.6667 8.00008 14.6667C11.682 14.6667 14.6667 11.682 14.6667 8.00008Z" fill="#767676"/>
    </svg>
    