<svg width="24" height="24" viewBox="0 0 24 24" fill="none" xmlns="http://www.w3.org/2000/svg">
    <path d="M17.1003 13.9L11.9305 20.83L6.7606 13.9C5.92357 12.7739 5.47028 11.4061 5.46814 10V10C5.46814 8.27609 6.14899 6.62279 7.36091 5.40381C8.57283 4.18482 10.2165 3.5 11.9305 3.5V3.5C13.6444 3.5 15.2881 4.18482 16.5 5.40381C17.7119 6.62279 18.3928 8.27609 18.3928 10V10C18.3906 11.4061 17.9373 12.7739 17.1003 13.9V13.9Z" stroke="black"/>
    <path d="M11.9304 12C13.0286 12 13.9188 11.1046 13.9188 10C13.9188 8.89543 13.0286 8 11.9304 8C10.8323 8 9.94202 8.89543 9.94202 10C9.94202 11.1046 10.8323 12 11.9304 12Z" stroke="black"/>
    </svg>
    