<svg width="22" height="22" viewBox="0 0 22 22" fill="none" xmlns="http://www.w3.org/2000/svg">
<circle cx="11" cy="11" r="11" fill="black"/>
<path d="M14.2612 5.61599C14.2412 5.63599 14.2212 5.66101 14.2012 5.68101L13.3705 6.51167C13.3605 6.52167 13.3555 6.52669 13.3505 6.53166C13.3305 6.55669 13.3305 6.58171 13.3555 6.61673C13.5657 6.97199 13.6958 7.35228 13.7409 7.75763C13.8309 8.58825 13.6207 9.33385 13.1003 9.98936C12.655 10.5498 12.0745 10.9001 11.3789 11.0552C11.0587 11.1253 10.7335 11.1302 10.4082 11.0952C9.87276 11.0401 9.39235 10.845 8.96202 10.5248C8.34152 10.0645 7.95622 9.45397 7.79609 8.69335C7.73605 8.4131 7.72605 8.12792 7.75107 7.84772C7.81111 7.1922 8.06132 6.6117 8.50667 6.11636C8.93202 5.64096 9.45243 5.33072 10.0679 5.19064C10.3732 5.12055 10.6784 5.09553 10.9937 5.12553C11.444 5.16557 11.8643 5.2957 12.2546 5.52084C12.3047 5.55088 12.3247 5.53084 12.3547 5.50084L13.1804 4.67516C13.2004 4.65516 13.2204 4.6301 13.2454 4.6001C13.5851 4.94017 13.92 5.27552 14.2606 5.61568L14.2612 5.61599ZM12.3839 8.16753C12.4089 7.20176 11.6483 6.50123 10.7926 6.47621C9.82687 6.45114 9.10629 7.25181 9.10629 8.11748C9.10629 9.00316 9.85189 9.7688 10.7475 9.75378C11.6283 9.76382 12.3636 9.03809 12.3837 8.16739L12.3839 8.16753ZM13.6507 14.8531C13.6557 15.6637 13.6507 16.4793 13.6507 17.29V17.4001H12.1996V17.3001C12.1996 16.4494 12.2046 15.5987 12.1996 14.748C12.1996 14.3027 12.0445 13.9124 11.7193 13.6021C11.5041 13.397 11.2439 13.2769 10.9437 13.2368C10.5533 13.1818 10.198 13.2769 9.88285 13.5121C9.56758 13.7523 9.38244 14.0775 9.32239 14.4628C9.2924 14.648 9.28737 14.8382 9.28737 15.0282C9.2824 15.7839 9.28737 16.5344 9.28737 17.29V17.3951H7.84626V17.3001C7.84626 16.3843 7.83622 15.4636 7.85124 14.5478C7.86124 14.0625 8.01639 13.6021 8.27157 13.1818C8.69688 12.4812 9.30235 12.0309 10.098 11.8457C10.3491 11.7898 10.6064 11.7662 10.8636 11.7757C11.6592 11.8107 12.3397 12.1259 12.8802 12.7214C13.2655 13.1517 13.5107 13.6521 13.5957 14.2276C13.6302 14.4372 13.6503 14.6472 13.6503 14.8524" fill="white"/>
</svg>
