<svg width="112" height="112" viewBox="0 0 112 112" fill="none" xmlns="http://www.w3.org/2000/svg">
<path d="M75.0377 26.4331C74.9345 26.5365 74.8306 26.6659 74.7274 26.7693L70.4319 31.0648C70.3802 31.1165 70.3542 31.1425 70.328 31.1682C70.2248 31.2976 70.2248 31.427 70.3542 31.6081C71.441 33.4453 72.1137 35.4118 72.347 37.508C72.8126 41.8033 71.7253 45.6589 69.0346 49.0487C66.7316 51.9467 63.73 53.7581 60.1329 54.5604C58.4768 54.9228 56.795 54.9484 55.113 54.7675C52.3441 54.4825 49.8598 53.4736 47.6345 51.8176C44.4258 49.4371 42.4333 46.2801 41.6052 42.3468C41.2947 40.8976 41.243 39.4228 41.3724 37.9738C41.6829 34.584 42.9768 31.5821 45.2798 29.0206C47.4794 26.5622 50.1705 24.9579 53.3533 24.2335C54.9319 23.8711 56.51 23.7417 58.1406 23.8968C60.4693 24.1039 62.6429 24.7768 64.6612 25.941C64.92 26.0964 65.0234 25.9928 65.179 25.8376L69.4485 21.5678C69.5519 21.4644 69.6556 21.3348 69.7847 21.1797C71.5415 22.9383 73.2735 24.6725 75.0347 26.4315L75.0377 26.4331ZM65.3296 39.6276C65.459 34.6335 61.5256 31.0108 57.1007 30.8815C52.1068 30.7518 48.3806 34.8922 48.3806 39.3689C48.3806 43.9489 52.2362 47.9082 56.8677 47.8305C61.4222 47.8824 65.2248 44.1295 65.3287 39.6269L65.3296 39.6276ZM71.8809 74.2002C71.9066 78.392 71.8809 82.6097 71.8809 86.802V87.3712H64.3769V86.8539C64.3769 82.4548 64.4026 78.0556 64.3769 73.6569C64.3769 71.3539 63.5746 69.3354 61.8928 67.731C60.78 66.6702 59.4345 66.0492 57.882 65.8422C55.8636 65.5574 54.0262 66.0492 52.3963 67.2654C50.766 68.5076 49.8085 70.1896 49.4981 72.1817C49.3429 73.1393 49.317 74.1229 49.317 75.1059C49.2912 79.0135 49.317 82.8946 49.317 86.802V87.3453H41.8647V86.8539C41.8647 82.1181 41.8127 77.3569 41.8904 72.6216C41.9421 70.1119 42.7444 67.731 44.064 65.5574C46.2634 61.9348 49.3944 59.6061 53.5088 58.6484C54.8076 58.359 56.1382 58.2373 57.4679 58.2862C61.5823 58.4673 65.1013 60.0974 67.8961 63.1768C69.8886 65.4019 71.1565 67.9894 71.5964 70.9655C71.7748 72.0494 71.8786 73.1355 71.8786 74.1968" fill="black"/>
</svg>
