<svg width="40" height="40" viewBox="0 0 40 40" fill="none" xmlns="http://www.w3.org/2000/svg">
<rect width="40" height="40" fill="black"/>
<path d="M28.1536 6.53973C28.1037 6.58972 28.0535 6.65227 28.0036 6.70227L25.927 8.77892C25.902 8.80392 25.8894 8.81647 25.8768 8.82892C25.8269 8.89147 25.8269 8.95402 25.8894 9.04157C26.4148 9.92974 26.74 10.8805 26.8528 11.8938C27.0779 13.9704 26.5523 15.8344 25.2515 17.4732C24.1381 18.8742 22.6869 19.7499 20.9479 20.1378C20.1473 20.313 19.3343 20.3253 18.5211 20.2379C17.1825 20.1001 15.9815 19.6124 14.9057 18.8117C13.3544 17.6609 12.3911 16.1347 11.9908 14.2331C11.8407 13.5325 11.8157 12.8196 11.8783 12.119C12.0284 10.4803 12.6539 9.02902 13.7673 7.79065C14.8307 6.60217 16.1317 5.82655 17.6704 5.47635C18.4335 5.30114 19.1965 5.23859 19.9848 5.31358C21.1106 5.41369 22.1614 5.739 23.1371 6.30185C23.2622 6.37696 23.3122 6.32685 23.3875 6.25186L25.4516 4.18765C25.5016 4.13766 25.5517 4.075 25.6141 4C26.4634 4.85018 27.3007 5.68857 28.1522 6.53896L28.1536 6.53973ZM23.4603 12.9186C23.5228 10.5042 21.6213 8.75283 19.4821 8.69028C17.0678 8.62762 15.2663 10.6293 15.2663 12.7935C15.2663 15.0077 17.1303 16.9218 19.3694 16.8842C21.5713 16.9093 23.4096 15.095 23.4598 12.9182L23.4603 12.9186ZM26.6275 29.6325C26.6399 31.659 26.6275 33.698 26.6275 35.7248V36H22.9997V35.7499C22.9997 33.6231 23.0121 31.4964 22.9997 29.3699C22.9997 28.2565 22.6118 27.2807 21.7988 26.505C21.2608 25.9922 20.6103 25.692 19.8598 25.5919C18.884 25.4542 17.9957 25.692 17.2077 26.2799C16.4196 26.8805 15.9567 27.6936 15.8066 28.6567C15.7316 29.1196 15.719 29.5952 15.719 30.0704C15.7066 31.9595 15.719 33.8358 15.719 35.7248V35.9874H12.1163V35.7499C12.1163 33.4604 12.0912 31.1586 12.1287 28.8693C12.1537 27.6561 12.5416 26.505 13.1795 25.4542C14.2428 23.7029 15.7565 22.5771 17.7456 22.1141C18.3735 21.9742 19.0167 21.9153 19.6596 21.939C21.6487 22.0265 23.3499 22.8146 24.701 24.3033C25.6643 25.379 26.2773 26.6299 26.4899 28.0687C26.5762 28.5927 26.6264 29.1178 26.6264 29.6309" fill="white"/>
</svg>
