<svg width="40" height="41" viewBox="0 0 40 41" fill="none" xmlns="http://www.w3.org/2000/svg">
<path d="M26.73 9.98259C26.6911 10.0216 26.6519 10.0705 26.6129 10.1095L24.9918 11.7306C24.9723 11.7501 24.9625 11.7599 24.9526 11.7696C24.9137 11.8184 24.9137 11.8673 24.9625 11.9356C25.3727 12.6289 25.6265 13.3711 25.7145 14.1622C25.8903 15.7832 25.4799 17.2383 24.4645 18.5176C23.5953 19.6113 22.4625 20.2949 21.105 20.5977C20.48 20.7344 19.8453 20.7441 19.2106 20.6758C18.1656 20.5683 17.228 20.1875 16.3882 19.5625C15.1773 18.6642 14.4253 17.4727 14.1128 15.9883C13.9956 15.4414 13.9761 14.8848 14.025 14.338C14.1421 13.0587 14.6304 11.9258 15.4996 10.9591C16.3297 10.0313 17.3453 9.42586 18.5464 9.15249C19.1422 9.01571 19.7378 8.96688 20.3532 9.02543C21.232 9.10357 22.0523 9.35752 22.814 9.7969C22.9116 9.85553 22.9507 9.81642 23.0094 9.75787L24.6207 8.14649C24.6597 8.10746 24.6988 8.05854 24.7476 8C25.4106 8.66368 26.0642 9.31815 26.7289 9.982L26.73 9.98259ZM23.0662 14.9621C23.1151 13.0774 21.6307 11.7102 19.9607 11.6614C18.076 11.6125 16.6698 13.175 16.6698 14.8645C16.6698 16.5929 18.1249 18.0871 19.8728 18.0578C21.5916 18.0774 23.0267 16.6611 23.0659 14.9619L23.0662 14.9621ZM25.5387 28.0096C25.5484 29.5915 25.5387 31.1832 25.5387 32.7654V32.9802H22.7067V32.785C22.7067 31.1248 22.7164 29.4646 22.7067 27.8045C22.7067 26.9354 22.4039 26.1736 21.7692 25.5682C21.3493 25.1678 20.8415 24.9335 20.2556 24.8553C19.4938 24.7479 18.8004 24.9335 18.1853 25.3924C17.57 25.8612 17.2087 26.496 17.0915 27.2478C17.033 27.6092 17.0232 27.9804 17.0232 28.3514C17.0135 29.8261 17.0232 31.2908 17.0232 32.7654V32.9704H14.2107V32.785C14.2107 30.9977 14.1911 29.2009 14.2205 27.4138C14.24 26.4667 14.5427 25.5682 15.0408 24.7479C15.8708 23.3807 17.0524 22.5019 18.6052 22.1404C19.0953 22.0312 19.5975 21.9853 20.0993 22.0038C21.652 22.0721 22.9801 22.6873 24.0348 23.8494C24.7868 24.6891 25.2653 25.6657 25.4313 26.7888C25.4986 27.1979 25.5378 27.6078 25.5378 28.0083" fill="black"/>
</svg>
