<svg width="14" height="14" viewBox="0 0 14 14" fill="none" xmlns="http://www.w3.org/2000/svg">
<path d="M11.5267 13H11.3934C9.58778 12.8058 7.85314 12.1892 6.32978 11.2C4.91129 10.296 3.71002 9.08945 2.81188 7.66673C1.82277 6.1446 1.20434 4.41152 1.00629 2.60678C0.98706 2.40164 1.01205 2.19477 1.07958 2.00012C1.14484 1.80694 1.24966 1.62949 1.38732 1.47912C1.52499 1.32875 1.69248 1.20875 1.8791 1.1268C2.0671 1.04054 2.27194 0.997274 2.47874 1.00013H4.18439C4.53958 1.00258 4.8831 1.12735 5.15714 1.35346C5.43325 1.58553 5.61559 1.91014 5.67017 2.26679C5.73677 2.78876 5.86423 3.30113 6.04994 3.79344C6.14953 4.05504 6.17038 4.3401 6.10991 4.61343C6.05275 4.89085 5.91616 5.14564 5.71681 5.34675L5.17713 5.88674C5.90823 7.08941 6.91843 8.09791 8.12204 8.82671L8.66172 8.28672C8.86112 8.08868 9.1132 7.95215 9.38795 7.89339C9.66333 7.83273 9.95039 7.85357 10.2141 7.95339C10.7061 8.13921 11.2182 8.26675 11.7399 8.33338C12.0988 8.38721 12.427 8.56675 12.666 8.84005C12.8929 9.11504 13.0114 9.46362 12.9991 9.82003V11.5267C13.001 11.7314 12.9578 11.9339 12.8725 12.12C12.7914 12.3078 12.671 12.476 12.5194 12.6133C12.3703 12.7518 12.193 12.8564 11.9997 12.92C11.8476 12.973 11.6877 13 11.5267 13ZM4.19772 1.66679H2.47874C2.3667 1.66832 2.25595 1.69093 2.15227 1.73346C2.05173 1.77997 1.96121 1.84564 1.88576 1.92679C1.80951 2.00985 1.75062 2.10731 1.71253 2.21345C1.67969 2.31905 1.66615 2.42971 1.67256 2.54012C1.85892 4.24413 2.44072 5.88097 3.37154 7.32006C4.22468 8.66182 5.36192 9.79972 6.70289 10.6534C8.13799 11.5728 9.76611 12.1477 11.46 12.3333C11.5704 12.3398 11.681 12.3262 11.7865 12.2933C11.8926 12.2552 11.99 12.1963 12.073 12.12C12.1541 12.0445 12.2197 11.9539 12.2662 11.8533C12.3113 11.7504 12.334 11.6391 12.3329 11.5267V9.8067C12.3404 9.61053 12.271 9.41917 12.1396 9.27337C12.0193 9.12907 11.8517 9.03221 11.6666 9.00004C11.0954 8.92549 10.5344 8.78684 9.99426 8.58672C9.84634 8.54338 9.68911 8.54338 9.54119 8.58672C9.39188 8.61713 9.25501 8.69141 9.1481 8.80005L8.42186 9.52004C8.37022 9.57143 8.30316 9.60448 8.23096 9.61411C8.15876 9.62374 8.0854 9.60943 8.0221 9.57337C6.54656 8.73558 5.3243 7.5149 4.48421 6.04008C4.44652 5.97605 4.4313 5.90125 4.44095 5.82757C4.45061 5.75389 4.4846 5.68555 4.53751 5.63341L5.23043 4.87342C5.33843 4.76443 5.41281 4.62666 5.4447 4.47654C5.4766 4.32642 5.46467 4.17029 5.41033 4.02677C5.21034 3.47981 5.07397 2.91163 5.0039 2.33345C4.97457 2.14167 4.87768 1.9667 4.73073 1.84012C4.57978 1.71989 4.39047 1.65833 4.19772 1.66679Z" fill="black"/>
</svg>
