<svg width="32" height="32" viewBox="0 0 32 32" fill="none" xmlns="http://www.w3.org/2000/svg">
<circle cx="16" cy="16" r="16" fill="white"/>
<path d="M20.875 10.375H11.125C10.7272 10.375 10.3456 10.533 10.0643 10.8143C9.78304 11.0956 9.625 11.4772 9.625 11.875V17.5C9.625 17.8978 9.78304 18.2794 10.0643 18.5607C10.3456 18.842 10.7272 19 11.125 19H12.25V22L15.25 19H20.875C21.2728 19 21.6544 18.842 21.9357 18.5607C22.217 18.2794 22.375 17.8978 22.375 17.5V11.875C22.375 11.4772 22.217 11.0956 21.9357 10.8143C21.6544 10.533 21.2728 10.375 20.875 10.375V10.375Z" stroke="black"/>
<path d="M13.375 14.125V15.25" stroke="black"/>
<path d="M16 14.125V15.25" stroke="black"/>
<path d="M18.625 14.125V15.25" stroke="black"/>
</svg>
