<svg width="28" height="28" viewBox="0 0 28 28" fill="none" xmlns="http://www.w3.org/2000/svg">
<path fill-rule="evenodd" clip-rule="evenodd" d="M4.35427 5.5209C4.90125 4.97392 5.64312 4.66663 6.41667 4.66663H21.5833C22.3569 4.66663 23.0987 4.97392 23.6457 5.5209C24.1927 6.06788 24.5 6.80974 24.5 7.58329V16.3333C24.5 17.1068 24.1927 17.8487 23.6457 18.3957C23.0987 18.9427 22.3569 19.25 21.5833 19.25H13.075L7.58333 24.7416V19.25H6.41667C5.64312 19.25 4.90125 18.9427 4.35427 18.3957C3.80729 17.8487 3.5 17.1068 3.5 16.3333V7.58329C3.5 6.80974 3.80729 6.06788 4.35427 5.5209ZM6.41667 5.83329C5.95254 5.83329 5.50742 6.01767 5.17923 6.34586C4.85104 6.67404 4.66667 7.11916 4.66667 7.58329V16.3333C4.66667 16.7974 4.85104 17.2425 5.17923 17.5707C5.50742 17.8989 5.95254 18.0833 6.41667 18.0833H8.75V21.925L12.5917 18.0833H21.5833C22.0475 18.0833 22.4926 17.8989 22.8208 17.5707C23.149 17.2425 23.3333 16.7974 23.3333 16.3333V7.58329C23.3333 7.11916 23.149 6.67404 22.8208 6.34586C22.4926 6.01767 22.0475 5.83329 21.5833 5.83329H6.41667ZM9.33333 12.8333V11.0833H10.5V12.8333H9.33333ZM13.4167 12.8333V11.0833H14.5833V12.8333H13.4167ZM17.5 12.8333V11.0833H18.6667V12.8333H17.5Z" fill="black"/>
</svg>
