<svg width="25" height="25" viewBox="0 0 25 25" fill="none" xmlns="http://www.w3.org/2000/svg">
  <path fill-rule="evenodd" clip-rule="evenodd" d="M12.0986 22.9575C17.6215 22.9575 22.0986 18.4804 22.0986 12.9575C22.0986 7.43467 17.6215 2.95752 12.0986 2.95752C6.57579 2.95752 2.09863 7.43467 2.09863 12.9575C2.09863 18.4804 6.57579 22.9575 12.0986 22.9575ZM12.0986 23.9575C18.1738 23.9575 23.0986 19.0327 23.0986 12.9575C23.0986 6.88239 18.1738 1.95752 12.0986 1.95752C6.0235 1.95752 1.09863 6.88239 1.09863 12.9575C1.09863 19.0327 6.0235 23.9575 12.0986 23.9575Z" fill="white"/>
  <path d="M11.5986 12.4575V7.30066H12.0986H12.5986L12.5986 12.4575L17.7555 12.4575L17.7555 12.9575L17.7555 13.4575L12.5986 13.4575L12.5986 18.6144L12.0986 18.6144L11.5986 18.6144L11.5986 13.4575H6.44178L6.44178 12.9575L6.44178 12.4575L11.5986 12.4575Z" fill="white"/>
  </svg>
