<?xml version="1.0" standalone="no"?>
<!DOCTYPE svg PUBLIC "-//W3C//DTD SVG 1.1//EN" "http://www.w3.org/Graphics/SVG/1.1/DTD/svg11.dtd">
<svg t="1682322721040" class="icon" viewBox="0 0 1024 1024" fill="none" version="1.1" xmlns="http://www.w3.org/2000/svg" p-id="2520" xmlns:xlink="http://www.w3.org/1999/xlink" width="200" height="200">
  <path d="M512 56.888889C260.551111 56.888889 56.888889 260.551111 56.888889 512s203.662222 455.111111 455.111111 455.111111 455.111111-203.662222 455.111111-455.111111-203.662222-455.111111-455.111111-455.111111z m0 872.391111c-229.944889 0-417.28-187.107556-417.28-417.28 0-229.944889 187.107556-417.28 417.28-417.28 229.944889 0 417.28 187.107556 417.28 417.28 0 229.944889-187.335111 417.28-417.28 417.28z" p-id="2521" fill="#767676"></path>
  <path d="M519.850667 271.36c-94.492444 0-147.228444 44.373333-147.911111 136.078222h41.187555c-1.365333-66.56 33.905778-101.774222 104.789333-101.774222 50.744889 0 93.184 35.441778 93.184 87.04 0 33.564444-18.147556 60.643556-42.439111 83.399111-49.493333 45.511111-63.431111 78.791111-65.877333 141.141333h41.585778c2.446222-56.433778 1.137778-67.128889 50.972444-116.622222 33.28-31.061333 56.661333-61.895111 56.661334-109.795555 0-74.865778-59.904-119.466667-132.152889-119.466667z m1.536 407.608889a36.977778 36.977778 0 0 0-37.148445 36.750222c0 20.309333 16.611556 36.977778 37.148445 36.977778a36.977778 36.977778 0 0 0 37.205333-36.977778 36.977778 36.977778 0 0 0-37.205333-36.750222z" p-id="2522" fill="#767676"></path>
</svg>
