<svg width="24" height="24" viewBox="0 0 24 24" fill="none" xmlns="http://www.w3.org/2000/svg">
<path d="M10.8232 4.32324C7.23339 4.32324 4.32324 7.23339 4.32324 10.8232C4.32324 14.4131 7.23339 17.3232 10.8232 17.3232C14.4131 17.3232 17.3232 14.4131 17.3232 10.8232C17.3232 7.23339 14.4131 4.32324 10.8232 4.32324ZM3.32324 10.8232C3.32324 6.68111 6.68111 3.32324 10.8232 3.32324C14.9654 3.32324 18.3232 6.68111 18.3232 10.8232C18.3232 12.7144 17.6233 14.442 16.4684 15.7613L20.6768 19.9697L19.9697 20.6768L15.7613 16.4684C14.442 17.6233 12.7144 18.3232 10.8232 18.3232C6.68111 18.3232 3.32324 14.9654 3.32324 10.8232Z" fill="#333333"/>
</svg>

