<svg width="24" height="24" viewBox="0 0 24 24" fill="none" xmlns="http://www.w3.org/2000/svg">
<path d="M20 12C20 14.1217 19.1571 16.1566 17.6569 17.6569C16.1566 19.1571 14.1217 20 12 20H11" stroke="black"/>
<path d="M13.5 17.5L11 20L13.5 22.5" stroke="black"/>
<path d="M8 5.07017C8.91001 4.54468 9.91463 4.20362 10.9565 4.06647C11.9983 3.92933 13.057 3.99878 14.072 4.27087C15.087 4.54296 16.0384 5.01236 16.872 5.65224C17.7055 6.29212 18.4049 7.08996 18.93 8.00017L19.43 8.87017" stroke="black"/>
<path d="M16.0098 7.9502L19.4298 8.8702L20.3398 5.4502" stroke="black"/>
<path d="M8.00017 18.9299C7.08996 18.4047 6.29212 17.7054 5.65224 16.8719C5.01236 16.0383 4.54296 15.0869 4.27087 14.0719C3.99878 13.0569 3.92933 11.9982 4.06647 10.9564C4.20362 9.91451 4.54468 8.90989 5.07017 7.99988L5.57017 7.12988" stroke="black"/>
<path d="M6.49016 10.5499L5.57016 7.12988L2.16016 8.04988" stroke="black"/>
</svg>
