<svg width="25" height="24" viewBox="0 0 25 24" fill="none" xmlns="http://www.w3.org/2000/svg">
  <path d="M19.7365 21H19.5364C16.8264 20.7087 14.2229 19.7838 11.9364 18.3C9.80745 16.9439 8.00446 15.1341 6.65645 13C5.17191 10.7167 4.24371 8.11709 3.94645 5.40996C3.91759 5.10225 3.9551 4.79193 4.05645 4.49996C4.15441 4.21017 4.31172 3.944 4.51834 3.71844C4.72496 3.49288 4.97635 3.31289 5.25645 3.18996C5.53862 3.06057 5.84606 2.99567 6.15645 2.99996H8.71645C9.24956 3.00363 9.76513 3.19079 10.1764 3.52996C10.5909 3.87805 10.8645 4.36498 10.9464 4.89996C11.0464 5.68292 11.2377 6.45149 11.5164 7.18996C11.6659 7.58237 11.6972 8.00996 11.6064 8.41996C11.5207 8.83609 11.3157 9.21829 11.0164 9.51996L10.2064 10.33C11.3037 12.134 12.8199 13.6467 14.6264 14.74L15.4364 13.93C15.7357 13.6329 16.1141 13.4281 16.5264 13.34C16.9398 13.249 17.3706 13.2802 17.7664 13.43C18.5049 13.7087 19.2735 13.9 20.0564 14C20.5952 14.0807 21.0877 14.35 21.4464 14.76C21.7871 15.1724 21.9649 15.6953 21.9464 16.23V18.79C21.9493 19.097 21.8844 19.4008 21.7564 19.68C21.6346 19.9616 21.4539 20.2139 21.2264 20.42C21.0026 20.6277 20.7365 20.7846 20.4464 20.88C20.2182 20.9594 19.9782 21 19.7365 21ZM8.73645 3.99996H6.15645C5.98829 4.00224 5.82206 4.03617 5.66645 4.09996C5.51555 4.16973 5.37968 4.26823 5.26645 4.38996C5.15201 4.51454 5.06361 4.66074 5.00645 4.81996C4.95716 4.97835 4.93683 5.14434 4.94645 5.30996C5.22616 7.866 6.09939 10.3213 7.49645 12.48C8.77692 14.4926 10.4838 16.1995 12.4964 17.48C14.6504 18.8591 17.094 19.7216 19.6364 20C19.8021 20.0096 19.9681 19.9892 20.1264 19.94C20.2857 19.8828 20.4319 19.7944 20.5564 19.68C20.6782 19.5667 20.7767 19.4309 20.8464 19.28C20.9141 19.1256 20.9482 18.9585 20.9464 18.79V16.21C20.9577 15.9157 20.8537 15.6286 20.6564 15.41C20.4758 15.1935 20.2242 15.0482 19.9464 15C19.0892 14.8881 18.2472 14.6802 17.4364 14.38C17.2144 14.315 16.9785 14.315 16.7564 14.38C16.5323 14.4256 16.3269 14.537 16.1664 14.7L15.0764 15.78C14.9989 15.857 14.8983 15.9066 14.7899 15.9211C14.6816 15.9355 14.5715 15.914 14.4764 15.86C12.2618 14.6032 10.4273 12.7722 9.16645 10.56C9.10988 10.4639 9.08703 10.3517 9.10152 10.2412C9.11602 10.1307 9.16703 10.0282 9.24645 9.94995L10.2864 8.80996C10.4485 8.64647 10.5602 8.43981 10.608 8.21463C10.6559 7.98944 10.638 7.75524 10.5564 7.53996C10.2563 6.71951 10.0516 5.86723 9.94645 4.99996C9.90242 4.71228 9.757 4.44983 9.53645 4.25996C9.30989 4.0796 9.02575 3.98726 8.73645 3.99996Z" fill="black"/>
  </svg>
