<svg width="24" height="24" viewBox="0 0 24 24" fill="none" xmlns="http://www.w3.org/2000/svg">
<path d="M18 6C19.5877 7.59321 20.4792 9.75076 20.4792 12C20.4792 14.2492 19.5877 16.4068 18 18" stroke="black"/>
<path d="M6.5 9.5H4C3.73478 9.5 3.48043 9.60536 3.29289 9.79289C3.10536 9.98043 3 10.2348 3 10.5V13.5C3 13.7652 3.10536 14.0196 3.29289 14.2071C3.48043 14.3946 3.73478 14.5 4 14.5H6.5L11 18V6L6.5 9.5Z" stroke="black"/>
<path d="M15.1799 15.1799C15.5984 14.7628 15.9304 14.2672 16.157 13.7215C16.3835 13.1758 16.5001 12.5908 16.5001 11.9999C16.5001 11.4091 16.3835 10.8241 16.157 10.2784C15.9304 9.73268 15.5984 9.23707 15.1799 8.81995" stroke="black"/>
</svg>
