<svg width="24" height="24" viewBox="0 0 24 24" fill="none" xmlns="http://www.w3.org/2000/svg">
<path d="M9.52513 3.77513C10.1815 3.11875 11.0717 2.75 12 2.75C12.9283 2.75 13.8185 3.11875 14.4749 3.77513C15.1313 4.4315 15.5 5.32174 15.5 6.25V7.75H21V17.25C21 18.3109 20.5786 19.3283 19.8284 20.0784C19.0783 20.8286 18.0609 21.25 17 21.25H7C5.93913 21.25 4.92172 20.8286 4.17157 20.0784C3.42143 19.3283 3 18.3109 3 17.25V7.75H8.5V6.25C8.5 5.32174 8.86875 4.4315 9.52513 3.77513ZM8.5 8.75H4V17.25C4 18.0456 4.31607 18.8087 4.87868 19.3713C5.44129 19.9339 6.20435 20.25 7 20.25H17C17.7956 20.25 18.5587 19.9339 19.1213 19.3713C19.6839 18.8087 20 18.0456 20 17.25V8.75H15.5V11.75H14.5V8.75H9.5V11.75H8.5V8.75ZM14.5 7.75V6.25C14.5 5.58696 14.2366 4.95107 13.7678 4.48223C13.2989 4.01339 12.663 3.75 12 3.75C11.337 3.75 10.7011 4.01339 10.2322 4.48223C9.76339 4.95107 9.5 5.58696 9.5 6.25V7.75H14.5Z" fill="#FFC83A" stroke="#FFC83A"/>
</svg>
