<svg width="24" height="25" viewBox="0 0 24 25" fill="none" xmlns="http://www.w3.org/2000/svg">
<path d="M9.52513 4.52513C10.1815 3.86875 11.0717 3.5 12 3.5C12.9283 3.5 13.8185 3.86875 14.4749 4.52513C15.1313 5.1815 15.5 6.07174 15.5 7V8.5H21V18C21 19.0609 20.5786 20.0783 19.8284 20.8284C19.0783 21.5786 18.0609 22 17 22H7C5.93913 22 4.92172 21.5786 4.17157 20.8284C3.42143 20.0783 3 19.0609 3 18V8.5H8.5V7C8.5 6.07174 8.86875 5.1815 9.52513 4.52513ZM8.5 9.5H4V18C4 18.7956 4.31607 19.5587 4.87868 20.1213C5.44129 20.6839 6.20435 21 7 21H17C17.7956 21 18.5587 20.6839 19.1213 20.1213C19.6839 19.5587 20 18.7956 20 18V9.5H15.5V12.5H14.5V9.5H9.5V12.5H8.5V9.5ZM14.5 8.5V7C14.5 6.33696 14.2366 5.70107 13.7678 5.23223C13.2989 4.76339 12.663 4.5 12 4.5C11.337 4.5 10.7011 4.76339 10.2322 5.23223C9.76339 5.70107 9.5 6.33696 9.5 7V8.5H14.5Z" fill="#767676"/>
</svg>
