<svg width="24" height="24" viewBox="0 0 24 24" fill="none" xmlns="http://www.w3.org/2000/svg">
<path d="M12 4.44444C11.2176 4.44444 10.5833 5.07871 10.5833 5.86111C10.5833 6.64351 11.2176 7.27778 12 7.27778C12.7824 7.27778 13.4167 6.64351 13.4167 5.86111C13.4167 5.07871 12.7824 4.44444 12 4.44444ZM9.63889 5.86111C9.63889 4.55711 10.696 3.5 12 3.5C13.304 3.5 14.3611 4.55711 14.3611 5.86111C14.3611 7.16512 13.304 8.22222 12 8.22222C10.696 8.22222 9.63889 7.16512 9.63889 5.86111ZM5.86111 10.5833C5.07871 10.5833 4.44444 11.2176 4.44444 12C4.44444 12.7824 5.07871 13.4167 5.86111 13.4167C6.64351 13.4167 7.27778 12.7824 7.27778 12C7.27778 11.2176 6.64351 10.5833 5.86111 10.5833ZM3.5 12C3.5 10.696 4.55711 9.63889 5.86111 9.63889C7.16512 9.63889 8.22222 10.696 8.22222 12C8.22222 13.304 7.16512 14.3611 5.86111 14.3611C4.55711 14.3611 3.5 13.304 3.5 12ZM18.1389 10.5833C17.3565 10.5833 16.7222 11.2176 16.7222 12C16.7222 12.7824 17.3565 13.4167 18.1389 13.4167C18.9213 13.4167 19.5556 12.7824 19.5556 12C19.5556 11.2176 18.9213 10.5833 18.1389 10.5833ZM15.7778 12C15.7778 10.696 16.8349 9.63889 18.1389 9.63889C19.4429 9.63889 20.5 10.696 20.5 12C20.5 13.304 19.4429 14.3611 18.1389 14.3611C16.8349 14.3611 15.7778 13.304 15.7778 12ZM12 16.7222C11.2176 16.7222 10.5833 17.3565 10.5833 18.1389C10.5833 18.9213 11.2176 19.5556 12 19.5556C12.7824 19.5556 13.4167 18.9213 13.4167 18.1389C13.4167 17.3565 12.7824 16.7222 12 16.7222ZM9.63889 18.1389C9.63889 16.8349 10.696 15.7778 12 15.7778C13.304 15.7778 14.3611 16.8349 14.3611 18.1389C14.3611 19.4429 13.304 20.5 12 20.5C10.696 20.5 9.63889 19.4429 9.63889 18.1389Z" fill="#FFC83A" stroke="#FFC83A" stroke-width="0.5" stroke-miterlimit="10"/>
</svg>
