<svg width="24" height="25" viewBox="0 0 24 25" fill="none" xmlns="http://www.w3.org/2000/svg">
<path d="M12 5.19444C11.2176 5.19444 10.5833 5.82871 10.5833 6.61111C10.5833 7.39351 11.2176 8.02778 12 8.02778C12.7824 8.02778 13.4167 7.39351 13.4167 6.61111C13.4167 5.82871 12.7824 5.19444 12 5.19444ZM9.63889 6.61111C9.63889 5.30711 10.696 4.25 12 4.25C13.304 4.25 14.3611 5.30711 14.3611 6.61111C14.3611 7.91512 13.304 8.97222 12 8.97222C10.696 8.97222 9.63889 7.91512 9.63889 6.61111ZM5.86111 11.3333C5.07871 11.3333 4.44444 11.9676 4.44444 12.75C4.44444 13.5324 5.07871 14.1667 5.86111 14.1667C6.64351 14.1667 7.27778 13.5324 7.27778 12.75C7.27778 11.9676 6.64351 11.3333 5.86111 11.3333ZM3.5 12.75C3.5 11.446 4.55711 10.3889 5.86111 10.3889C7.16512 10.3889 8.22222 11.446 8.22222 12.75C8.22222 14.054 7.16512 15.1111 5.86111 15.1111C4.55711 15.1111 3.5 14.054 3.5 12.75ZM18.1389 11.3333C17.3565 11.3333 16.7222 11.9676 16.7222 12.75C16.7222 13.5324 17.3565 14.1667 18.1389 14.1667C18.9213 14.1667 19.5556 13.5324 19.5556 12.75C19.5556 11.9676 18.9213 11.3333 18.1389 11.3333ZM15.7778 12.75C15.7778 11.446 16.8349 10.3889 18.1389 10.3889C19.4429 10.3889 20.5 11.446 20.5 12.75C20.5 14.054 19.4429 15.1111 18.1389 15.1111C16.8349 15.1111 15.7778 14.054 15.7778 12.75ZM12 17.4722C11.2176 17.4722 10.5833 18.1065 10.5833 18.8889C10.5833 19.6713 11.2176 20.3056 12 20.3056C12.7824 20.3056 13.4167 19.6713 13.4167 18.8889C13.4167 18.1065 12.7824 17.4722 12 17.4722ZM9.63889 18.8889C9.63889 17.5849 10.696 16.5278 12 16.5278C13.304 16.5278 14.3611 17.5849 14.3611 18.8889C14.3611 20.1929 13.304 21.25 12 21.25C10.696 21.25 9.63889 20.1929 9.63889 18.8889Z" fill="#767676"/>
</svg>
