<svg width="24" height="24" viewBox="0 0 24 24" fill="none" xmlns="http://www.w3.org/2000/svg">
<path d="M12 3L21 8.47522V17.2276C21 18.2371 20.5732 19.1994 19.8233 19.9045C19.0742 20.6087 18.0638 21 17.0155 21H6.98452C5.93622 21 4.92579 20.6087 4.17674 19.9045C3.42678 19.1994 3 18.2371 3 17.2276V8.47522L12 3ZM3.94737 9.00415V17.2276C3.94737 17.969 4.26037 18.6859 4.82723 19.2188C5.395 19.7526 6.17056 20.0569 6.98452 20.0569H17.0155C17.8294 20.0569 18.605 19.7526 19.1728 19.2188C19.7396 18.6859 20.0526 17.969 20.0526 17.2276V9.00415L12 4.10526L3.94737 9.00415Z" fill="#FFC83A" stroke="#FFC83A"/>
</svg>
