<svg width="24" height="25" viewBox="0 0 24 25" fill="none" xmlns="http://www.w3.org/2000/svg">
<path d="M12 4.75C10.067 4.75 8.5 6.317 8.5 8.25C8.5 10.183 10.067 11.75 12 11.75C13.933 11.75 15.5 10.183 15.5 8.25C15.5 6.317 13.933 4.75 12 4.75ZM7.5 8.25C7.5 5.76472 9.51472 3.75 12 3.75C14.4853 3.75 16.5 5.76472 16.5 8.25C16.5 10.7353 14.4853 12.75 12 12.75C9.51472 12.75 7.5 10.7353 7.5 8.25ZM7.5 15.75C6.57174 15.75 5.6815 16.1187 5.02513 16.7751C4.36875 17.4315 4 18.3217 4 19.25V21.75H3V19.25C3 18.0565 3.47411 16.9119 4.31802 16.068C5.16193 15.2241 6.30653 14.75 7.5 14.75H16.5C17.6935 14.75 18.8381 15.2241 19.682 16.068C20.5259 16.9119 21 18.0565 21 19.25V21.75H20V19.25C20 18.3217 19.6313 17.4315 18.9749 16.7751C18.3185 16.1187 17.4283 15.75 16.5 15.75H7.5Z" fill="#767676"/>
</svg>
