<svg width="24" height="24" viewBox="0 0 24 24" fill="none" xmlns="http://www.w3.org/2000/svg">
<path d="M12 4C10.067 4 8.5 5.567 8.5 7.5C8.5 9.433 10.067 11 12 11C13.933 11 15.5 9.433 15.5 7.5C15.5 5.567 13.933 4 12 4ZM7.5 7.5C7.5 5.01472 9.51472 3 12 3C14.4853 3 16.5 5.01472 16.5 7.5C16.5 9.98528 14.4853 12 12 12C9.51472 12 7.5 9.98528 7.5 7.5ZM7.5 15C6.57174 15 5.6815 15.3687 5.02513 16.0251C4.36875 16.6815 4 17.5717 4 18.5V21H3V18.5C3 17.3065 3.47411 16.1619 4.31802 15.318C5.16193 14.4741 6.30653 14 7.5 14H16.5C17.6935 14 18.8381 14.4741 19.682 15.318C20.5259 16.1619 21 17.3065 21 18.5V21H20V18.5C20 17.5717 19.6313 16.6815 18.9749 16.0251C18.3185 15.3687 17.4283 15 16.5 15H7.5Z" fill="#FFC83A" stroke="#FFC83A"/>
</svg>
